<svg id="Capa_1" data-name="Capa 1" xmlns="http://www.w3.org/2000/svg" viewBox="0 0 358.04 372"><defs><style>.cls-1,.cls-6{fill:#ea1111;}.cls-2{fill:#fed5b3;}.cls-3{fill:#fff;}.cls-4{fill:#cdcbbd;}.cls-5{fill:#e10101;}.cls-6{stroke:#09090a;stroke-miterlimit:10;stroke-width:1.03px;}</style></defs><path class="cls-1" d="M117.48,318.62,57.9,326.07l22.35-41-52.13-14.9L72.8,236.7,20.67,184.56,72.8,169.67,13.22,87.75l85.65,14.89L80.25,9.55l89.37,59.58L229.2,9.55l7.45,78.2L333.46,65.4l-37.23,85.65,67,29.79L300,214.35l48.41,33.52-41,18.62,22.34,44.68-48.41,3.73L285.06,341,184.52,314.9Z" transform="translate(-10.39 -5.55)"/><path d="M286.23,345a3.76,3.76,0,0,1-1-.13l-99.94-25.91L119,322.6,59.58,330a4,4,0,0,1-4-5.88l19.95-36.58L28.19,274.05a4,4,0,0,1-1.3-7l41-30.75L19,187.39a4,4,0,0,1,1.73-6.67l46.63-13.33L11.16,90.1a4,4,0,0,1,3.92-6.3L95,97.7,77.5,10.33a4,4,0,0,1,6.14-4.11L170.28,64,227.55,6.72a4,4,0,0,1,6.8,2.45l7,73.65,92.37-21.31A4,4,0,0,1,338.31,67l-35.66,82,63.4,28.18a4,4,0,0,1,.25,7.18l-57.49,30.44,43,29.76a4,4,0,0,1-.62,6.93L314,268.41l20.49,41a4,4,0,0,1-3.27,5.77l-44.16,3.4,3.12,21.84a4,4,0,0,1-4,4.57ZM185.69,310.9a3.76,3.76,0,0,1,1,.13l94.73,24.56-2.87-20.12a4,4,0,0,1,3.65-4.56l42.48-3.27L305,268.28a4,4,0,0,1,1.92-5.43l34.55-15.7-42.61-29.5a4,4,0,0,1,.4-6.83l56-29.66-59.51-26.45a4,4,0,0,1-2-5.26l34.08-78.36L238.72,91.65a4,4,0,0,1-4.88-3.52L227.2,18.38,173.62,72a4,4,0,0,1-5.05.5L87.24,18.23,104,101.85a4,4,0,0,1-1.06,3.58,4,4,0,0,1-3.55,1.15L23.44,93.38l53.77,73.93a4,4,0,0,1-2.14,6.2l-45.59,13L76.8,233.87a4,4,0,0,1-.43,6L38.13,268.58l44.39,12.68A4,4,0,0,1,84.93,287l-18.6,34.11,51.83-6.48.27,0,67-3.73Z" transform="translate(-10.39 -5.55)"/><circle class="cls-2" cx="96" cy="248" r="24"/><path d="M106.39,281.55a28,28,0,1,1,28-28A28,28,0,0,1,106.39,281.55Zm0-48a20,20,0,1,0,20,20A20,20,0,0,0,106.39,233.55Z" transform="translate(-10.39 -5.55)"/><circle class="cls-2" cx="260" cy="248" r="24"/><path d="M270.39,281.55a28,28,0,1,1,28-28A28,28,0,0,1,270.39,281.55Zm0-48a20,20,0,1,0,20,20A20,20,0,0,0,270.39,233.55Z" transform="translate(-10.39 -5.55)"/><path class="cls-2" d="M104.92,161S90.1,277.44,119.75,330s114.88,56.34,137.12-3.76S274.18,199.52,268,153.48C256.87,70.84,112.34,44.55,104.92,161Z" transform="translate(-10.39 -5.55)"/><path d="M192.24,377.55c-30.72,0-60.17-16.48-74.8-42.42-29.73-52.74-16.13-165-15.32-171.38C105.91,105,143.64,82.8,177.71,81.6c40.83-1.44,89,26.64,95.41,74.48,6.1,45.36,11.57,112.82-11.33,174.72-9.9,26.76-33.37,44.14-62.77,46.48-2.26.18-4.53.27-6.78.27Zm-11.48-288c-.93,0-1.85,0-2.77,0-39.62,1.4-65,29.35-67.9,74.79a2.11,2.11,0,0,1,0,.25c-.15,1.15-14.31,115.74,14.34,166.57,14.2,25.18,43.9,40.48,74,38.1,26.6-2.12,47-17.17,55.9-41.28,22.28-60.23,16.89-126.37,10.9-170.87-5.69-42.34-47.67-67.6-84.43-67.6ZM106.1,164.13h0Z" transform="translate(-10.39 -5.55)"/><path class="cls-3" d="M125,183.55a31,31,0,1,0,52.75,0Z" transform="translate(-10.39 -5.55)"/><path d="M151.33,232.77a34.08,34.08,0,0,1-6.34-.59,32.95,32.95,0,0,1-21.67-49.68,2,2,0,0,1,1.7-.95h52.75a2,2,0,0,1,1.7.94,33,33,0,0,1-28.14,50.28Zm-25.17-47.22a29,29,0,1,0,50.46,0Z" transform="translate(-10.39 -5.55)"/><path class="cls-2" d="M136.18,169.89a31,31,0,0,0-16.51,24.29A138.36,138.36,0,0,1,181.42,196,31,31,0,0,0,170,173.31" transform="translate(-10.39 -5.55)"/><path d="M119.19,195.25a2,2,0,0,1-1.21-.55,2,2,0,0,1-.59-1.7,33,33,0,0,1,18.31-25.35,2,2,0,1,1,1.75,3.6,29,29,0,0,0-15.61,19.62,140.66,140.66,0,0,1,57,3.28A29.06,29.06,0,0,0,169,175.37a2,2,0,0,1,2.6-3,33,33,0,0,1,11.48,24.47,2,2,0,0,1-.79,1.62,2.05,2.05,0,0,1-1.78.33,136.81,136.81,0,0,0-60.79-3.52A1.68,1.68,0,0,1,119.19,195.25Z" transform="translate(-10.39 -5.55)"/><path class="cls-3" d="M201,183.55a31,31,0,1,0,52.75,0Z" transform="translate(-10.39 -5.55)"/><path d="M227.33,232.77a34.08,34.08,0,0,1-6.34-.59,32.95,32.95,0,0,1-21.67-49.68,2,2,0,0,1,1.7-.95h52.75a2,2,0,0,1,1.7.94,33,33,0,0,1-28.14,50.28Zm-25.17-47.22a29,29,0,1,0,50.46,0Z" transform="translate(-10.39 -5.55)"/><path class="cls-2" d="M209.76,173.16a31,31,0,0,0-11.36,27.09,138.28,138.28,0,0,1,60.88-10.49,31,31,0,0,0-15.7-19.94" transform="translate(-10.39 -5.55)"/><path d="M197.88,201a2,2,0,0,1-2.18-1.89A33,33,0,0,1,209,170.8a2,2,0,0,1,2.38,3.22,29,29,0,0,0-11.73,22.15,140.81,140.81,0,0,1,56.67-7.28,29.06,29.06,0,0,0-13.2-16.63,2,2,0,0,1,2-3.46,33,33,0,0,1,15.78,21.93,2,2,0,0,1-.47,1.74,2,2,0,0,1-1.69.65,136.89,136.89,0,0,0-60.39,7.74A1.74,1.74,0,0,1,197.88,201Z" transform="translate(-10.39 -5.55)"/><circle cx="142" cy="190" r="6"/><circle cx="218" cy="190" r="6"/><path d="M143.58,246.21a36.45,36.45,0,0,1-22-10.61,2,2,0,0,1,.14-2.82,2,2,0,0,1,2.83.13A32.09,32.09,0,0,0,156.5,241a2,2,0,0,1,1.09,3.84,36.67,36.67,0,0,1-14,1.33Z" transform="translate(-10.39 -5.55)"/><path d="M233.52,246.72a36.78,36.78,0,0,1-14-.87,2,2,0,1,1,1-3.87c19.46,4.86,31.49-9,31.61-9.18a2,2,0,0,1,3.06,2.58A36.46,36.46,0,0,1,233.52,246.72Z" transform="translate(-10.39 -5.55)"/><path d="M199.51,162.87c-1.66.66-3.32.74-3.88.14s.37-1.92,2.19-2.8c8-3.84,15.54-7.68,22.38-11.42,1.76-.95,3.82-1.26,4.65-.7s.09,1.78-1.65,2.73c-7.09,3.87-14.88,7.84-23.15,11.81A5.22,5.22,0,0,1,199.51,162.87Z" transform="translate(-10.39 -5.55)"/><path d="M164.55,153.42a173,173,0,0,1-16.28-11.06,2,2,0,0,1-.33-2.81,2,2,0,0,1,2.81-.33A185.94,185.94,0,0,0,179,156.89a2,2,0,0,1,.88,2.68,2,2,0,0,1-2.69.89C172.57,158.11,168.3,155.69,164.55,153.42Z" transform="translate(-10.39 -5.55)"/><path d="M186.39,276.55a10.67,10.67,0,0,1-8.47-4.56c-2.31-3.07-3.53-7.37-3.53-12.44v-24a2,2,0,0,1,4,0v24c0,8.93,4.15,13,8,13s8-4.07,8-13v-24a2,2,0,0,1,4,0v24C198.39,271.23,192.17,276.55,186.39,276.55Z" transform="translate(-10.39 -5.55)"/><path d="M232.39,317.55a2,2,0,0,1-.76-.16c-46.6-19.42-90-.22-90.41,0a2,2,0,1,1-1.65-3.64c.44-.21,45.34-20.12,93.59,0a2,2,0,0,1-.77,3.85Z" transform="translate(-10.39 -5.55)"/><path class="cls-4" d="M77.86,145.06l8.19,10.7" transform="translate(-10.39 -5.55)"/><path d="M86.05,157.76a2,2,0,0,1-1.58-.79l-8.2-10.7a2,2,0,0,1,3.17-2.43l8.2,10.7a2,2,0,0,1-.37,2.81A2,2,0,0,1,86.05,157.76Z" transform="translate(-10.39 -5.55)"/><path class="cls-4" d="M49.29,107.76l20.52,26.79" transform="translate(-10.39 -5.55)"/><path d="M69.81,136.55a2,2,0,0,1-1.58-.78L47.7,109a2,2,0,1,1,3.17-2.43L71.4,133.33a2,2,0,0,1-1.59,3.22Z" transform="translate(-10.39 -5.55)"/><path class="cls-4" d="M108.76,65.63l6.4,27.83" transform="translate(-10.39 -5.55)"/><path d="M115.16,95.46a2,2,0,0,1-2-1.55l-6.4-27.82a2,2,0,1,1,3.9-.9L117.11,93a2,2,0,0,1-1.5,2.4A1.73,1.73,0,0,1,115.16,95.46Z" transform="translate(-10.39 -5.55)"/><path class="cls-4" d="M103.41,42.4l2.53,11" transform="translate(-10.39 -5.55)"/><path d="M105.94,55.38a2,2,0,0,1-2-1.55l-2.52-11a2,2,0,0,1,3.9-.9l2.52,11a2,2,0,0,1-1.5,2.4A1.73,1.73,0,0,1,105.94,55.38Z" transform="translate(-10.39 -5.55)"/><path d="M133.56,318.23c-.51,0-.95.76-1,1.83s.3,2.3.87,2.49a36.32,36.32,0,0,1,7.11,3.21c.56.33,1.14-.34,1.3-1.5a2.93,2.93,0,0,0-.73-2.68,37.25,37.25,0,0,0-7.34-3.32A.34.34,0,0,0,133.56,318.23Z" transform="translate(-10.39 -5.55)"/><path d="M239.56,319.66a37.51,37.51,0,0,0-7.34,3.32c-.56.33-.88,1.53-.72,2.68s.73,1.83,1.3,1.5a36,36,0,0,1,7.1-3.21c.57-.19,1-1.31.87-2.49s-.53-1.83-1-1.83A.36.36,0,0,0,239.56,319.66Z" transform="translate(-10.39 -5.55)"/><path class="cls-5" d="M-251.61,118.55" transform="translate(-10.39 -5.55)"/><path d="M232.06,160.7c-1.2-.42-2.15-1.11-2.19-1.63s1-.72,2.44-.34c6.08,1.72,11.91,3.22,17.3,4.48,1.39.32,2.66,1.08,2.87,1.7s-.73.86-2.11.54c-5.59-1.3-11.62-2.86-17.9-4.63A3.17,3.17,0,0,1,232.06,160.7Z" transform="translate(-10.39 -5.55)"/><path class="cls-6" d="M189.05,186.32c-11.65,0-21.64-7.08-30.79-9.6-4.16-.84-11.5-5.26-14.83-5.26-12.91-.24-19.28,2.74-19.28,2.74-5.76-.63-9.15-1.68-10-5.89S111.09,158,120,158.23a87.6,87.6,0,0,1,28.29,0c4.16.84,8.2,2.87,13.19,4.55,7.45,4.23,19.21,9.87,28.36,9.87s17.71-9.1,26-10.78a95.88,95.88,0,0,1,12.29-3.64c16.64-2.53,23.46-1.08,24.29-1.08,4.16.85,14.65,1.94,9.82,11.16-.83,4.21-5.82,6.73-10,5.89,0,0-4.75-4-18.06-2.28-3.33.84-11.06,4-16.05,4.8C210.68,179.24,200.7,186.32,189.05,186.32Z" transform="translate(-10.39 -5.55)"/></svg>