<svg id="Capa_1" data-name="Capa 1" xmlns="http://www.w3.org/2000/svg" viewBox="0 0 1228.12 731.69"><defs><style>.cls-1{fill:#a3a3cd;}.cls-2{fill:#fed5b3;}.cls-3{fill:#fff;}.cls-4{fill:#cdcbbd;}.cls-5{font-size:233.28px;font-family:BebasNeue-Regular, Bebas Neue;}.cls-6{letter-spacing:0em;}.cls-7{letter-spacing:0em;}.cls-8{letter-spacing:0em;}</style></defs><path class="cls-1" d="M834,633.1,720.46,647.74l42.59-80.56-99.37-29.3L748.85,472,649.48,369.42l99.37-29.29L635.29,179l163.25,29.3L763.05,25.18,933.4,142.37,1047,25.18,1061.17,179l184.54-44-71,168.47,127.76,58.59L1181.83,428l92.27,65.92L1196,530.56l42.58,87.89-92.27,7.33,7.1,51.26L961.8,625.78Z" transform="translate(-82 -17.31)"/><path d="M1153.44,684.91a7.91,7.91,0,0,1-1.92-.25L961,633.69l-126.31,7.24L721.41,655.55a7.6,7.6,0,0,1-7.24-3.38,8.07,8.07,0,0,1-.4-8.19l38-72-90.21-26.6a7.76,7.76,0,0,1-5.4-6.13,8,8,0,0,1,2.92-7.72l78.15-60.48L644.09,375a8,8,0,0,1-2-7.53,7.77,7.77,0,0,1,5.29-5.59l88.88-26.21-107.15-152a8.1,8.1,0,0,1-.31-8.79,7.56,7.56,0,0,1,7.78-3.6l152.3,27.34L755.57,26.72a8,8,0,0,1,3.23-8.08,7.44,7.44,0,0,1,8.47,0l165.16,113.6L1041.58,19.62a7.42,7.42,0,0,1,8-1.84,7.82,7.82,0,0,1,5,6.65l13.37,144.88L1244,127.38a7.48,7.48,0,0,1,7.57,2.64,8,8,0,0,1,1.13,8.16l-68,161.3,120.86,55.43a8,8,0,0,1,.47,14.14l-109.58,59.86,82,58.55a8,8,0,0,1,3.25,7.16,7.82,7.82,0,0,1-4.44,6.46l-70.87,33.25,39,80.59a8.1,8.1,0,0,1-.18,7.39,7.61,7.61,0,0,1-6,4L1155.05,633l5.94,43a8,8,0,0,1-2.47,7,7.44,7.44,0,0,1-5.08,2Zm-191.65-67a7.64,7.64,0,0,1,1.91.25l180.57,48.31-5.48-39.58a8.06,8.06,0,0,1,1.6-6,7.56,7.56,0,0,1,5.36-2.92l81-6.42-37.52-77.43a8.07,8.07,0,0,1-.36-6.14,7.78,7.78,0,0,1,4-4.54l65.85-30.88-81.23-58a8,8,0,0,1-3.27-6.94,7.9,7.9,0,0,1,4-6.48l106.81-58.35-113.42-52a8,8,0,0,1-3.9-10.33l65-154.15-169.81,40.44a7.43,7.43,0,0,1-6.17-1.29,7.91,7.91,0,0,1-3.13-5.63L1040.92,42.56,938.79,147.93a7.43,7.43,0,0,1-9.62,1l-155-106.65L806,206.74a8,8,0,0,1-2,7,7.42,7.42,0,0,1-6.76,2.26l-144.71-26L755,335.49a8.11,8.11,0,0,1,1.05,7.2,7.73,7.73,0,0,1-5.12,5L664,373.31l90.2,93.09a8,8,0,0,1-.81,11.86l-72.9,56.41,84.61,24.94a7.74,7.74,0,0,1,4.94,4.53,8.09,8.09,0,0,1-.34,6.8L734.28,638l98.8-12.75.52,0,127.76-7.32Z" transform="translate(-82 -17.31)"/><ellipse class="cls-2" cx="728.65" cy="487.79" rx="45.75" ry="47.21"/><path d="M810.65,560.18c-29.42,0-53.37-24.71-53.37-55.08s24-55.07,53.37-55.07S864,474.74,864,505.1,840.07,560.18,810.65,560.18Zm0-94.41c-21,0-38.12,17.64-38.12,39.33s17.1,39.34,38.12,39.34,38.12-17.64,38.12-39.34S831.67,465.77,810.65,465.77Z" transform="translate(-82 -17.31)"/><ellipse class="cls-2" cx="1041.25" cy="487.79" rx="45.75" ry="47.21"/><path d="M1123.25,560.18c-29.42,0-53.37-24.71-53.37-55.08S1093.83,450,1123.25,450s53.37,24.71,53.37,55.07S1152.67,560.18,1123.25,560.18Zm0-94.41c-21,0-38.12,17.64-38.12,39.33s17.1,39.34,38.12,39.34,38.12-17.64,38.12-39.34S1144.27,465.77,1123.25,465.77Z" transform="translate(-82 -17.31)"/><path class="cls-2" d="M810.09,329.22s-28.26,229,28.25,332.49,219,110.83,261.37-7.39,33-249.32,21.19-339.87c-21.19-162.55-296.69-214.27-310.81,14.77Z" transform="translate(-82 -17.31)"/><path d="M974.29,749c-58.57,0-114.71-32.4-142.58-83.43C775,561.85,801,341,802.5,328.48,809.73,213,881.65,169.26,946.58,166.91c77.83-2.84,169.6,52.39,181.87,146.49,11.63,89.21,22.06,221.9-21.6,343.65-18.87,52.64-63.6,86.82-119.64,91.42-4.31.36-8.63.53-12.92.53ZM952.4,182.53c-1.77,0-3.53,0-5.28.1-75.52,2.74-123.91,57.71-129.42,147.09,0,.17,0,.33,0,.5-.29,2.26-27.28,227.65,27.33,327.62,27.06,49.53,83.68,79.62,141,74.94,50.71-4.16,89.55-33.76,106.56-81.19C1135,533.13,1124.75,403,1113.34,315.5c-10.86-83.28-90.87-133-160.94-133ZM810.09,329.22h0Z" transform="translate(-82 -17.31)"/><path class="cls-3" d="M846.16,367.42a62.5,62.5,0,0,0-7.3,45.89c5.06,23.14,23.47,41.51,46.07,45.91,37.68,7.32,70.58-22.3,70.58-59.86a62,62,0,0,0-8.82-31.94Z" transform="translate(-82 -17.31)"/><path d="M896.3,464.25a63.46,63.46,0,0,1-12.08-1.17c-24-4.66-43.71-24.32-49.08-48.91a66.86,66.86,0,0,1,7.77-48.81,3.8,3.8,0,0,1,3.25-1.87H946.69a3.81,3.81,0,0,1,3.25,1.86,66.26,66.26,0,0,1-13.39,84,61.76,61.76,0,0,1-40.25,14.9Zm-48-92.89a58.91,58.91,0,0,0-5.76,41.07c4.72,21.58,22,38.83,43.06,42.92a54.41,54.41,0,0,0,46-12.05,58.21,58.21,0,0,0,12.84-71.94Z" transform="translate(-82 -17.31)"/><path class="cls-2" d="M865.73,342.61a61.32,61.32,0,0,0-28.28,49.87q59.17-16.05,117.67-4.65a61.4,61.4,0,0,0-24.65-43" transform="translate(-82 -17.31)"/><path d="M837.45,396.41a3.86,3.86,0,0,1-2.39-.85,4.07,4.07,0,0,1-1.43-3.22,65.22,65.22,0,0,1,30.1-53.08,3.75,3.75,0,0,1,5.25,1.3,4,4,0,0,1-1.27,5.41,57.09,57.09,0,0,0-26,41.35A260.16,260.16,0,0,1,950.5,383a57.33,57.33,0,0,0-22.24-34.9,4,4,0,0,1-.92-5.48,3.74,3.74,0,0,1,5.31-.94,65.3,65.3,0,0,1,26.24,45.73,4,4,0,0,1-1.2,3.32,3.76,3.76,0,0,1-3.3,1c-38.12-7.49-77.14-5.94-116,4.59A3.35,3.35,0,0,1,837.45,396.41Z" transform="translate(-82 -17.31)"/><path class="cls-3" d="M991,367.42a62.5,62.5,0,0,0-7.3,45.89c5.06,23.14,23.47,41.51,46.07,45.91,37.68,7.32,70.59-22.3,70.59-59.86a62.13,62.13,0,0,0-8.82-31.94Z" transform="translate(-82 -17.31)"/><path d="M1041.16,464.25a63.62,63.62,0,0,1-12.08-1.17c-24-4.66-43.7-24.32-49.08-48.91a67,67,0,0,1,7.77-48.81,3.8,3.8,0,0,1,3.25-1.87h100.54a3.81,3.81,0,0,1,3.24,1.86,66.27,66.27,0,0,1-13.38,84,61.79,61.79,0,0,1-40.26,14.9Zm-48-92.89a58.91,58.91,0,0,0-5.75,41.07c4.71,21.58,22,38.83,43,42.92a54.41,54.41,0,0,0,46-12.05,57.67,57.67,0,0,0,20-43.94,58.27,58.27,0,0,0-7.18-28Z" transform="translate(-82 -17.31)"/><path class="cls-2" d="M1010.59,342.61a61.35,61.35,0,0,0-28.28,49.87q59.18-16.05,117.67-4.65a61.37,61.37,0,0,0-24.65-43" transform="translate(-82 -17.31)"/><path d="M982.31,396.41a3.81,3.81,0,0,1-2.38-.85,4.05,4.05,0,0,1-1.44-3.22,65.21,65.21,0,0,1,30.11-53.08,3.74,3.74,0,0,1,5.24,1.3,4,4,0,0,1-1.26,5.41,57.06,57.06,0,0,0-26,41.35A260.11,260.11,0,0,1,1095.36,383a57.24,57.24,0,0,0-22.24-34.9,4,4,0,0,1-.91-5.48,3.73,3.73,0,0,1,5.3-.94,65.28,65.28,0,0,1,26.25,45.73,4,4,0,0,1-1.2,3.32,3.78,3.78,0,0,1-3.31,1c-38.11-7.49-77.14-5.94-116,4.59A3.47,3.47,0,0,1,982.31,396.41Z" transform="translate(-82 -17.31)"/><ellipse cx="816.33" cy="373.71" rx="11.44" ry="11.8"/><ellipse cx="961.19" cy="373.71" rx="11.44" ry="11.8"/><path d="M888.69,494.49A68.25,68.25,0,0,1,845,478.14a4,4,0,0,1-.29-5.54,3.75,3.75,0,0,1,5.39-.3c1.08,1,26.69,24.09,62.06,9.48a3.78,3.78,0,0,1,5,2.19,4,4,0,0,1-2.12,5.11,68.24,68.24,0,0,1-26.31,5.41Z" transform="translate(-82 -17.31)"/><path d="M1040.18,494.49a68.16,68.16,0,0,1-26.3-5.41,4,4,0,0,1-2.12-5.11,3.78,3.78,0,0,1,5-2.19c35.5,14.65,61.79-9.24,62-9.48a3.72,3.72,0,0,1,5.39.29,4,4,0,0,1-.28,5.55A68.23,68.23,0,0,1,1040.18,494.49Z" transform="translate(-82 -17.31)"/><path d="M986.51,243.51a3.84,3.84,0,0,1-3.76-3.31,3.94,3.94,0,0,1,3.16-4.51,215.82,215.82,0,0,0,25.73-5.81,3.79,3.79,0,0,1,4.72,2.71,4,4,0,0,1-2.62,4.86,224.9,224.9,0,0,1-26.62,6A2.51,2.51,0,0,1,986.51,243.51Z" transform="translate(-82 -17.31)"/><path d="M935.34,247.45a319.63,319.63,0,0,1-37.48-2,3.91,3.91,0,0,1-3.31-4.39,3.87,3.87,0,0,1,4.25-3.41,344.54,344.54,0,0,0,63.53.9,3.94,3.94,0,0,1,.58,7.85C953,247.17,943.7,247.45,935.34,247.45Z" transform="translate(-82 -17.31)"/><path d="M963.14,550.34c-6.14,0-12-3.26-16.16-9-4.39-6-6.71-14.51-6.71-24.48V469.7a3.81,3.81,0,1,1,7.62,0v47.21c0,17.56,7.91,25.57,15.25,25.57s15.25-8,15.25-25.57V469.7a3.81,3.81,0,1,1,7.62,0v47.21C986,539.88,974.16,550.34,963.14,550.34Z" transform="translate(-82 -17.31)"/><path d="M1050.82,631a3.93,3.93,0,0,1-1.46-.3c-88.82-38.21-171.51-.44-172.32-.06a3.77,3.77,0,0,1-5-2,4,4,0,0,1,1.89-5.21c.85-.41,86.44-39.56,178.4-.05a4,4,0,0,1,2.06,5.14,3.81,3.81,0,0,1-3.52,2.43Z" transform="translate(-82 -17.31)"/><path class="cls-4" d="M756.26,291.72l15.62,21" transform="translate(-82 -17.31)"/><path d="M771.88,316.7a3.74,3.74,0,0,1-3-1.54L753.23,294.1a4,4,0,0,1,.71-5.51,3.73,3.73,0,0,1,5.34.73l15.63,21.05a4,4,0,0,1-.71,5.52A3.73,3.73,0,0,1,771.88,316.7Z" transform="translate(-82 -17.31)"/><path class="cls-4" d="M701.8,218.35l39.12,52.71" transform="translate(-82 -17.31)"/><path d="M740.92,275a3.71,3.71,0,0,1-3-1.55l-39.12-52.69a4,4,0,0,1,.71-5.52,3.73,3.73,0,0,1,5.33.73l39.12,52.7a4,4,0,0,1-.71,5.51A3.63,3.63,0,0,1,740.92,275Z" transform="translate(-82 -17.31)"/><path class="cls-4" d="M815.16,135.5l12.19,54.74" transform="translate(-82 -17.31)"/><path d="M827.35,194.17a3.85,3.85,0,0,1-3.71-3l-12.2-54.73a3.93,3.93,0,0,1,2.86-4.71,3.81,3.81,0,0,1,4.58,2.95l12.2,54.72a4,4,0,0,1-2.86,4.72A3.69,3.69,0,0,1,827.35,194.17Z" transform="translate(-82 -17.31)"/><path class="cls-4" d="M805,89.8l4.82,21.6" transform="translate(-82 -17.31)"/><path d="M809.79,115.34a3.82,3.82,0,0,1-3.71-3.06l-4.82-21.6A3.93,3.93,0,0,1,804.12,86a3.8,3.8,0,0,1,4.57,3l4.82,21.6a3.94,3.94,0,0,1-2.86,4.72A3.76,3.76,0,0,1,809.79,115.34Z" transform="translate(-82 -17.31)"/><path class="cls-1" d="M915.39,320.75a389.06,389.06,0,0,1-61.31-4.65,15.67,15.67,0,0,1-12.76-17.94c1.29-8.6,9.14-14.51,17.39-13.16,50.41,8,94.55,3.22,133.51-1,35.6-3.86,66.33-7.2,90.43,1.75a15.87,15.87,0,0,1,9.2,20.12,15.15,15.15,0,0,1-19.51,9.5c-17.55-6.51-45.07-3.53-76.95-.06-23.45,2.52-50.37,5.44-80,5.44Z" transform="translate(-82 -17.31)"/><path d="M915.39,324.68A390.69,390.69,0,0,1,853.5,320c-10.39-1.65-17.54-11.72-15.94-22.43a19.69,19.69,0,0,1,7.63-12.91,18.18,18.18,0,0,1,14.12-3.54c49.92,7.92,93.8,3.17,132.52-1,36.06-3.91,67.21-7.28,92.12,1.95a19.2,19.2,0,0,1,10.8,10.13,20.13,20.13,0,0,1,.69,15,18.92,18.92,0,0,1-24.37,11.87c-16.75-6.22-43.86-3.28-75.26.14-23.79,2.57-50.63,5.47-80.42,5.47Zm-59-35.94a11,11,0,0,0-6.67,2.26,11.92,11.92,0,0,0,5,21.21,383.24,383.24,0,0,0,60.73,4.6c29.38,0,56-2.88,79.51-5.43,32.42-3.52,60.34-6.55,78.74.27a11.36,11.36,0,0,0,14.62-7.12,12,12,0,0,0-.42-9,11.46,11.46,0,0,0-6.48-6.07c-23.28-8.64-53.63-5.35-88.74-1.54-39.19,4.26-83.58,9.06-134.5,1A9.62,9.62,0,0,0,856.35,288.74Z" transform="translate(-82 -17.31)"/><path d="M585,526.68c-5.18-9.3-10.19-18.11-15-27-8.58-15.79-16.94-31.71-25.68-47.4-2-3.66-1.43-5.39,1.6-8,34.8-29.62,61.07-65.66,73.9-110.67,19.24-67.52,6.75-129.69-33.83-185.47C546.68,94.26,493.22,62,430.27,47c-87.82-20.91-170.82-8.23-246.62,43.67C142.21,119,110.9,156.81,94.33,205.74,70.21,276.94,81.92,343,125.6,402.67c39.54,54,93.6,85.31,156.66,100.74,54.66,13.38,109.11,11.55,163-4.86a13.53,13.53,0,0,1,9.22.25c33.82,12.62,68.41,22.12,104.19,26.49C567.13,526.32,575.63,527.53,585,526.68Z" transform="translate(-82 -17.31)"/><path class="cls-3" d="M558.77,510c-11.18-21.05-21.65-41.14-32.54-61-2.31-4.21-1.74-6.13,1.82-8.94,28.57-22.61,52.65-49.36,67.73-83.45,29.21-66,23.81-129.84-14.83-190-30.53-47.55-74.25-77.92-125.79-96.84a282,282,0,0,0-112.89-17c-70.52,3.7-133.44,27.49-184.63,79.1-34,34.28-55.41,75.56-59.89,125.13-5.27,58.24,13.31,108.3,50.75,151,43.11,49.18,98.06,75.64,160.94,85.7,46.49,7.44,92.19,3.6,137-11,3.13-1,5.75-.43,8.61.66,30.74,11.66,62.14,20.75,94.57,25.81C552.37,509.56,555.15,509.67,558.77,510Z" transform="translate(-82 -17.31)"/><text class="cls-5" transform="translate(54.16 324.8) scale(0.38 1)">No me <tspan class="cls-6" x="477.75" y="0">t</tspan><tspan class="cls-7" x="561.74" y="0">oqu</tspan><tspan class="cls-8" x="842.14" y="0">e</tspan><tspan x="927.29" y="0">s !</tspan></text></svg>